# MagicaVoxel @ Ephtracy

# group
o 

# material
mtllib advanced part maker.mtl
usemtl palette

# normals
vn -1 0 0
vn 1 0 0
vn 0 0 1
vn 0 0 -1
vn 0 -1 0
vn 0 1 0

# texcoords
vt 0.00976562 0.5
vt 0.560547 0.5
vt 0.611328 0.5
vt 0.958984 0.5
vt 0.986328 0.5
vt 0.994141 0.5

# verts
v -1.6 0 1.6
v -1.6 0 -1.6
v -1.6 1.6 1.6
v -1.6 1.6 0.2
v -1.6 1.6 -0.2
v -1.6 1.6 -1.6
v -1.6 3.2 0.2
v -1.6 3.2 -0.2
v -0.7 2.7 0.1
v -0.7 2.7 -0.1
v -0.7 2.8 0.1
v -0.7 2.8 -0.1
v 0.8 1.6 -1
v 0.8 1.6 -1.1
v 0.8 1.6 -1.4
v 0.8 1.6 -1.5
v 0.8 1.7 -1.1
v 0.8 1.7 -1.4
v 0.8 1.8 -1
v 0.8 1.8 -1.5
v 1.2 1.6 -1
v 1.2 1.6 -1.1
v 1.2 1.7 -1
v 1.2 1.7 -1.1
v 1.4 1.6 -1.4
v 1.4 1.6 -1.5
v 1.4 1.7 -1.1
v 1.4 1.7 -1.4
v 1.4 1.8 -1.1
v 1.4 1.8 -1.5
v -1.2 1.6 0.2
v -1.2 1.6 -0.2
v -1.2 2.8 0.2
v -1.2 2.8 -0.2
v -0.5 2.7 0.1
v -0.5 2.7 -0.1
v -0.5 2.8 0.1
v -0.5 2.8 -0.1
v -0.4 2.8 0.2
v -0.4 2.8 -0.2
v -0.4 3.2 0.2
v -0.4 3.2 -0.2
v 0.9 1.6 -1.4
v 0.9 1.6 -1.5
v 0.9 1.7 -1.1
v 0.9 1.7 -1.4
v 0.9 1.8 -1.1
v 0.9 1.8 -1.5
v 1.1 1.6 -1
v 1.1 1.6 -1.1
v 1.1 1.7 -1
v 1.1 1.7 -1.1
v 1.5 1.6 -1
v 1.5 1.6 -1.1
v 1.5 1.6 -1.4
v 1.5 1.6 -1.5
v 1.5 1.7 -1.1
v 1.5 1.7 -1.4
v 1.5 1.8 -1
v 1.5 1.8 -1.5
v 1.6 0 1.6
v 1.6 0 -1.6
v 1.6 1.6 1.6
v 1.6 1.6 -1.6
v -1.6 0 1.6
v -1.6 1.6 1.6
v 1.6 0 1.6
v 1.6 1.6 1.6
v -1.6 1.6 0.2
v -1.6 3.2 0.2
v -1.2 1.6 0.2
v -1.2 2.8 0.2
v -0.4 2.8 0.2
v -0.4 3.2 0.2
v -0.7 2.7 0.1
v -0.7 2.8 0.1
v -0.5 2.7 0.1
v -0.5 2.8 0.1
v 0.8 1.6 -1
v 0.8 1.8 -1
v 1.1 1.6 -1
v 1.1 1.7 -1
v 1.2 1.6 -1
v 1.2 1.7 -1
v 1.5 1.6 -1
v 1.5 1.8 -1
v 0.8 1.6 -1.4
v 0.8 1.7 -1.4
v 0.9 1.6 -1.4
v 0.9 1.7 -1.4
v 1.4 1.6 -1.4
v 1.4 1.7 -1.4
v 1.5 1.6 -1.4
v 1.5 1.7 -1.4
v -0.7 2.7 -0.1
v -0.7 2.8 -0.1
v -0.5 2.7 -0.1
v -0.5 2.8 -0.1
v -1.6 1.6 -0.2
v -1.6 3.2 -0.2
v -1.2 1.6 -0.2
v -1.2 2.8 -0.2
v -0.4 2.8 -0.2
v -0.4 3.2 -0.2
v 0.8 1.6 -1.1
v 0.8 1.7 -1.1
v 0.9 1.7 -1.1
v 0.9 1.8 -1.1
v 1.1 1.6 -1.1
v 1.1 1.7 -1.1
v 1.2 1.6 -1.1
v 1.2 1.7 -1.1
v 1.4 1.7 -1.1
v 1.4 1.8 -1.1
v 1.5 1.6 -1.1
v 1.5 1.7 -1.1
v 0.8 1.6 -1.5
v 0.8 1.8 -1.5
v 0.9 1.6 -1.5
v 0.9 1.8 -1.5
v 1.4 1.6 -1.5
v 1.4 1.8 -1.5
v 1.5 1.6 -1.5
v 1.5 1.8 -1.5
v -1.6 0 -1.6
v -1.6 1.6 -1.6
v 1.6 0 -1.6
v 1.6 1.6 -1.6
v -1.6 0 1.6
v 1.6 0 1.6
v -1.2 0 1.2
v 1.2 0 1.2
v -1.2 0 -1.2
v 1.2 0 -1.2
v -1.6 0 -1.6
v 1.6 0 -1.6
v 1.1 1.7 -1
v 1.2 1.7 -1
v 0.8 1.7 -1.1
v 0.9 1.7 -1.1
v 1.1 1.7 -1.1
v 1.2 1.7 -1.1
v 1.4 1.7 -1.1
v 1.5 1.7 -1.1
v 0.8 1.7 -1.4
v 0.9 1.7 -1.4
v 1.4 1.7 -1.4
v 1.5 1.7 -1.4
v -0.7 2.7 0.1
v -0.5 2.7 0.1
v -0.7 2.7 -0.1
v -0.5 2.7 -0.1
v -1.2 2.8 0.2
v -0.4 2.8 0.2
v -0.7 2.8 0.1
v -0.5 2.8 0.1
v -0.7 2.8 -0.1
v -0.5 2.8 -0.1
v -1.2 2.8 -0.2
v -0.4 2.8 -0.2
v -1.6 1.6 1.6
v 1.6 1.6 1.6
v -1.2 1.6 1.2
v 1.2 1.6 1.2
v -0.8 1.6 0.8
v 0.8 1.6 0.8
v -1.6 1.6 0.2
v -1.2 1.6 0.2
v -1.6 1.6 -0.2
v -1.2 1.6 -0.2
v -0.8 1.6 -0.8
v 0.8 1.6 -0.8
v 0.8 1.6 -1
v 1.1 1.6 -1
v 1.2 1.6 -1
v 1.5 1.6 -1
v 0.8 1.6 -1.1
v 1.1 1.6 -1.1
v 1.2 1.6 -1.1
v 1.5 1.6 -1.1
v -1.2 1.6 -1.2
v 1.2 1.6 -1.2
v 0.8 1.6 -1.4
v 0.9 1.6 -1.4
v 1.4 1.6 -1.4
v 1.5 1.6 -1.4
v 0.8 1.6 -1.5
v 0.9 1.6 -1.5
v 1.4 1.6 -1.5
v 1.5 1.6 -1.5
v -1.6 1.6 -1.6
v 1.6 1.6 -1.6
v 0.8 1.8 -1
v 1.5 1.8 -1
v 0.9 1.8 -1.1
v 1.4 1.8 -1.1
v 0.8 1.8 -1.5
v 0.9 1.8 -1.5
v 1.4 1.8 -1.5
v 1.5 1.8 -1.5
v -1.6 3.2 0.2
v -0.4 3.2 0.2
v -1.6 3.2 -0.2
v -0.4 3.2 -0.2

# faces
f 3/3/1 2/3/1 1/3/1
f 4/3/1 2/3/1 3/3/1
f 5/3/1 2/3/1 4/3/1
f 6/3/1 2/3/1 5/3/1
f 7/5/1 5/5/1 4/5/1
f 8/5/1 5/5/1 7/5/1
f 11/2/1 10/2/1 9/2/1
f 12/2/1 10/2/1 11/2/1
f 17/6/1 14/6/1 13/6/1
f 18/6/1 16/6/1 15/6/1
f 19/6/1 17/6/1 13/6/1
f 19/6/1 18/6/1 17/6/1
f 20/6/1 16/6/1 18/6/1
f 20/6/1 18/6/1 19/6/1
f 23/6/1 22/6/1 21/6/1
f 24/6/1 22/6/1 23/6/1
f 28/6/1 26/6/1 25/6/1
f 29/6/1 28/6/1 27/6/1
f 30/6/1 26/6/1 28/6/1
f 30/6/1 28/6/1 29/6/1
f 31/5/2 32/5/2 33/5/2
f 33/5/2 32/5/2 34/5/2
f 35/2/2 36/2/2 37/2/2
f 37/2/2 36/2/2 38/2/2
f 39/5/2 40/5/2 41/5/2
f 41/5/2 40/5/2 42/5/2
f 43/6/2 44/6/2 46/6/2
f 45/6/2 46/6/2 47/6/2
f 46/6/2 44/6/2 48/6/2
f 47/6/2 46/6/2 48/6/2
f 49/6/2 50/6/2 51/6/2
f 51/6/2 50/6/2 52/6/2
f 53/6/2 54/6/2 57/6/2
f 55/6/2 56/6/2 58/6/2
f 53/6/2 57/6/2 59/6/2
f 57/6/2 58/6/2 59/6/2
f 58/6/2 56/6/2 60/6/2
f 59/6/2 58/6/2 60/6/2
f 61/3/2 62/3/2 63/3/2
f 63/3/2 62/3/2 64/3/2
f 67/3/3 66/3/3 65/3/3
f 68/3/3 66/3/3 67/3/3
f 71/5/3 70/5/3 69/5/3
f 72/5/3 70/5/3 71/5/3
f 73/5/3 70/5/3 72/5/3
f 74/5/3 70/5/3 73/5/3
f 77/2/3 76/2/3 75/2/3
f 78/2/3 76/2/3 77/2/3
f 81/6/3 80/6/3 79/6/3
f 82/6/3 80/6/3 81/6/3
f 84/6/3 80/6/3 82/6/3
f 85/6/3 84/6/3 83/6/3
f 86/6/3 80/6/3 84/6/3
f 86/6/3 84/6/3 85/6/3
f 89/6/3 88/6/3 87/6/3
f 90/6/3 88/6/3 89/6/3
f 93/6/3 92/6/3 91/6/3
f 94/6/3 92/6/3 93/6/3
f 95/2/4 96/2/4 97/2/4
f 97/2/4 96/2/4 98/2/4
f 99/5/4 100/5/4 101/5/4
f 101/5/4 100/5/4 102/5/4
f 102/5/4 100/5/4 103/5/4
f 103/5/4 100/5/4 104/5/4
f 105/6/4 106/6/4 107/6/4
f 105/6/4 107/6/4 109/6/4
f 107/6/4 108/6/4 109/6/4
f 109/6/4 108/6/4 110/6/4
f 110/6/4 108/6/4 112/6/4
f 112/6/4 108/6/4 113/6/4
f 111/6/4 112/6/4 113/6/4
f 113/6/4 108/6/4 114/6/4
f 111/6/4 113/6/4 115/6/4
f 115/6/4 113/6/4 116/6/4
f 117/6/4 118/6/4 119/6/4
f 119/6/4 118/6/4 120/6/4
f 121/6/4 122/6/4 123/6/4
f 123/6/4 122/6/4 124/6/4
f 125/3/4 126/3/4 127/3/4
f 127/3/4 126/3/4 128/3/4
f 131/3/5 130/3/5 129/3/5
f 132/3/5 130/3/5 131/3/5
f 133/3/5 131/3/5 129/3/5
f 133/5/5 132/5/5 131/5/5
f 134/3/5 130/3/5 132/3/5
f 134/5/5 132/5/5 133/5/5
f 135/3/5 133/3/5 129/3/5
f 135/3/5 134/3/5 133/3/5
f 136/3/5 130/3/5 134/3/5
f 136/3/5 134/3/5 135/3/5
f 141/6/5 138/6/5 137/6/5
f 142/6/5 138/6/5 141/6/5
f 145/6/5 140/6/5 139/6/5
f 146/6/5 140/6/5 145/6/5
f 147/6/5 144/6/5 143/6/5
f 148/6/5 144/6/5 147/6/5
f 151/2/5 150/2/5 149/2/5
f 152/2/5 150/2/5 151/2/5
f 155/5/5 154/5/5 153/5/5
f 156/5/5 154/5/5 155/5/5
f 157/5/5 155/5/5 153/5/5
f 158/5/5 154/5/5 156/5/5
f 159/5/5 157/5/5 153/5/5
f 159/5/5 158/5/5 157/5/5
f 160/5/5 154/5/5 158/5/5
f 160/5/5 158/5/5 159/5/5
f 161/3/6 162/3/6 163/3/6
f 163/3/6 162/3/6 164/3/6
f 163/1/6 164/1/6 165/1/6
f 165/1/6 164/1/6 166/1/6
f 161/3/6 163/3/6 167/3/6
f 163/1/6 165/1/6 168/1/6
f 167/3/6 163/3/6 168/3/6
f 168/1/6 165/1/6 170/1/6
f 165/4/6 166/4/6 171/4/6
f 170/1/6 165/1/6 171/1/6
f 166/1/6 164/1/6 172/1/6
f 171/4/6 166/4/6 172/4/6
f 171/1/6 172/1/6 173/1/6
f 172/1/6 164/1/6 173/1/6
f 173/1/6 164/1/6 174/1/6
f 164/3/6 162/3/6 175/3/6
f 174/1/6 164/1/6 175/1/6
f 175/3/6 162/3/6 176/3/6
f 171/1/6 173/1/6 177/1/6
f 174/1/6 175/1/6 178/1/6
f 178/1/6 175/1/6 179/1/6
f 176/3/6 162/3/6 180/3/6
f 170/1/6 171/1/6 181/1/6
f 178/1/6 179/1/6 181/1/6
f 169/3/6 170/3/6 181/3/6
f 171/1/6 177/1/6 181/1/6
f 177/1/6 178/1/6 181/1/6
f 179/3/6 180/3/6 182/3/6
f 181/1/6 179/1/6 182/1/6
f 181/3/6 182/3/6 183/3/6
f 183/3/6 182/3/6 184/3/6
f 182/3/6 180/3/6 185/3/6
f 184/3/6 182/3/6 185/3/6
f 180/3/6 162/3/6 186/3/6
f 185/3/6 180/3/6 186/3/6
f 181/3/6 183/3/6 187/3/6
f 184/3/6 185/3/6 188/3/6
f 188/3/6 185/3/6 189/3/6
f 186/3/6 162/3/6 190/3/6
f 169/3/6 181/3/6 191/3/6
f 189/3/6 190/3/6 191/3/6
f 181/3/6 187/3/6 191/3/6
f 188/3/6 189/3/6 191/3/6
f 187/3/6 188/3/6 191/3/6
f 190/3/6 162/3/6 192/3/6
f 191/3/6 190/3/6 192/3/6
f 193/6/6 194/6/6 195/6/6
f 195/6/6 194/6/6 196/6/6
f 193/6/6 195/6/6 197/6/6
f 197/6/6 195/6/6 198/6/6
f 196/6/6 194/6/6 199/6/6
f 199/6/6 194/6/6 200/6/6
f 201/5/6 202/5/6 203/5/6
f 203/5/6 202/5/6 204/5/6
