# MagicaVoxel @ Ephtracy

# group
o 

# material
mtllib part maker.mtl
usemtl palette

# normals
vn -1 0 0
vn 1 0 0
vn 0 0 1
vn 0 0 -1
vn 0 -1 0
vn 0 1 0

# texcoords
vt 0.00976562 0.5
vt 0.958984 0.5
vt 0.986328 0.5
vt 0.990234 0.5

# verts
v -1.6 0 1.6
v -1.6 0 -1.6
v -1.6 1.6 1.6
v -1.6 1.6 0.2
v -1.6 1.6 -0.2
v -1.6 1.6 -1.6
v -1.6 3.2 0.2
v -1.6 3.2 -0.2
v -0.7 2.7 0.1
v -0.7 2.7 -0.1
v -0.7 2.8 0.1
v -0.7 2.8 -0.1
v 0.8 1.6 -1
v 0.8 1.6 -1.1
v 0.8 1.6 -1.4
v 0.8 1.6 -1.5
v 0.8 1.7 -1.1
v 0.8 1.7 -1.4
v 0.8 1.8 -1
v 0.8 1.8 -1.5
v 1.2 1.6 -1
v 1.2 1.6 -1.1
v 1.2 1.7 -1
v 1.2 1.7 -1.1
v 1.4 1.6 -1.4
v 1.4 1.6 -1.5
v 1.4 1.7 -1.1
v 1.4 1.7 -1.4
v 1.4 1.8 -1.1
v 1.4 1.8 -1.5
v -1.2 1.6 0.2
v -1.2 1.6 -0.2
v -1.2 2.8 0.2
v -1.2 2.8 -0.2
v -0.5 2.7 0.1
v -0.5 2.7 -0.1
v -0.5 2.8 0.1
v -0.5 2.8 -0.1
v -0.4 2.8 0.2
v -0.4 2.8 -0.2
v -0.4 3.2 0.2
v -0.4 3.2 -0.2
v 0.9 1.6 -1.4
v 0.9 1.6 -1.5
v 0.9 1.7 -1.1
v 0.9 1.7 -1.4
v 0.9 1.8 -1.1
v 0.9 1.8 -1.5
v 1.1 1.6 -1
v 1.1 1.6 -1.1
v 1.1 1.7 -1
v 1.1 1.7 -1.1
v 1.5 1.6 -1
v 1.5 1.6 -1.1
v 1.5 1.6 -1.4
v 1.5 1.6 -1.5
v 1.5 1.7 -1.1
v 1.5 1.7 -1.4
v 1.5 1.8 -1
v 1.5 1.8 -1.5
v 1.6 0 1.6
v 1.6 0 -1.6
v 1.6 1.6 1.6
v 1.6 1.6 -1.6
v -1.6 0 1.6
v -1.6 1.6 1.6
v 1.6 0 1.6
v 1.6 1.6 1.6
v -1.6 1.6 0.2
v -1.6 3.2 0.2
v -1.2 1.6 0.2
v -1.2 2.8 0.2
v -0.4 2.8 0.2
v -0.4 3.2 0.2
v -0.7 2.7 0.1
v -0.7 2.8 0.1
v -0.5 2.7 0.1
v -0.5 2.8 0.1
v 0.8 1.6 -1
v 0.8 1.8 -1
v 1.1 1.6 -1
v 1.1 1.7 -1
v 1.2 1.6 -1
v 1.2 1.7 -1
v 1.5 1.6 -1
v 1.5 1.8 -1
v 0.8 1.6 -1.4
v 0.8 1.7 -1.4
v 0.9 1.6 -1.4
v 0.9 1.7 -1.4
v 1.4 1.6 -1.4
v 1.4 1.7 -1.4
v 1.5 1.6 -1.4
v 1.5 1.7 -1.4
v -0.7 2.7 -0.1
v -0.7 2.8 -0.1
v -0.5 2.7 -0.1
v -0.5 2.8 -0.1
v -1.6 1.6 -0.2
v -1.6 3.2 -0.2
v -1.2 1.6 -0.2
v -1.2 2.8 -0.2
v -0.4 2.8 -0.2
v -0.4 3.2 -0.2
v 0.8 1.6 -1.1
v 0.8 1.7 -1.1
v 0.9 1.7 -1.1
v 0.9 1.8 -1.1
v 1.1 1.6 -1.1
v 1.1 1.7 -1.1
v 1.2 1.6 -1.1
v 1.2 1.7 -1.1
v 1.4 1.7 -1.1
v 1.4 1.8 -1.1
v 1.5 1.6 -1.1
v 1.5 1.7 -1.1
v 0.8 1.6 -1.5
v 0.8 1.8 -1.5
v 0.9 1.6 -1.5
v 0.9 1.8 -1.5
v 1.4 1.6 -1.5
v 1.4 1.8 -1.5
v 1.5 1.6 -1.5
v 1.5 1.8 -1.5
v -1.6 0 -1.6
v -1.6 1.6 -1.6
v 1.6 0 -1.6
v 1.6 1.6 -1.6
v -1.6 0 1.6
v 1.6 0 1.6
v -1.6 0 -1.6
v 1.6 0 -1.6
v 1.1 1.7 -1
v 1.2 1.7 -1
v 0.8 1.7 -1.1
v 0.9 1.7 -1.1
v 1.1 1.7 -1.1
v 1.2 1.7 -1.1
v 1.4 1.7 -1.1
v 1.5 1.7 -1.1
v 0.8 1.7 -1.4
v 0.9 1.7 -1.4
v 1.4 1.7 -1.4
v 1.5 1.7 -1.4
v -0.7 2.7 0.1
v -0.5 2.7 0.1
v -0.7 2.7 -0.1
v -0.5 2.7 -0.1
v -1.2 2.8 0.2
v -0.4 2.8 0.2
v -0.7 2.8 0.1
v -0.5 2.8 0.1
v -0.7 2.8 -0.1
v -0.5 2.8 -0.1
v -1.2 2.8 -0.2
v -0.4 2.8 -0.2
v -1.6 1.6 1.6
v 1.6 1.6 1.6
v -1.2 1.6 1.2
v 1.2 1.6 1.2
v -0.8 1.6 0.8
v 0.8 1.6 0.8
v -1.6 1.6 0.2
v -1.2 1.6 0.2
v -1.6 1.6 -0.2
v -1.2 1.6 -0.2
v -0.8 1.6 -0.8
v 0.8 1.6 -0.8
v 0.8 1.6 -1
v 1.1 1.6 -1
v 1.2 1.6 -1
v 1.5 1.6 -1
v 0.8 1.6 -1.1
v 1.1 1.6 -1.1
v 1.2 1.6 -1.1
v 1.5 1.6 -1.1
v -1.2 1.6 -1.2
v 1.2 1.6 -1.2
v 0.8 1.6 -1.4
v 0.9 1.6 -1.4
v 1.4 1.6 -1.4
v 1.5 1.6 -1.4
v 0.8 1.6 -1.5
v 0.9 1.6 -1.5
v 1.4 1.6 -1.5
v 1.5 1.6 -1.5
v -1.6 1.6 -1.6
v 1.6 1.6 -1.6
v 0.8 1.8 -1
v 1.5 1.8 -1
v 0.9 1.8 -1.1
v 1.4 1.8 -1.1
v 0.8 1.8 -1.5
v 0.9 1.8 -1.5
v 1.4 1.8 -1.5
v 1.5 1.8 -1.5
v -1.6 3.2 0.2
v -0.4 3.2 0.2
v -1.6 3.2 -0.2
v -0.4 3.2 -0.2

# faces
f 3/3/1 2/3/1 1/3/1
f 4/3/1 2/3/1 3/3/1
f 5/3/1 2/3/1 4/3/1
f 6/3/1 2/3/1 5/3/1
f 7/3/1 5/3/1 4/3/1
f 8/3/1 5/3/1 7/3/1
f 11/2/1 10/2/1 9/2/1
f 12/2/1 10/2/1 11/2/1
f 17/4/1 14/4/1 13/4/1
f 18/4/1 16/4/1 15/4/1
f 19/4/1 17/4/1 13/4/1
f 19/4/1 18/4/1 17/4/1
f 20/4/1 16/4/1 18/4/1
f 20/4/1 18/4/1 19/4/1
f 23/4/1 22/4/1 21/4/1
f 24/4/1 22/4/1 23/4/1
f 28/4/1 26/4/1 25/4/1
f 29/4/1 28/4/1 27/4/1
f 30/4/1 26/4/1 28/4/1
f 30/4/1 28/4/1 29/4/1
f 31/3/2 32/3/2 33/3/2
f 33/3/2 32/3/2 34/3/2
f 35/2/2 36/2/2 37/2/2
f 37/2/2 36/2/2 38/2/2
f 39/3/2 40/3/2 41/3/2
f 41/3/2 40/3/2 42/3/2
f 43/4/2 44/4/2 46/4/2
f 45/4/2 46/4/2 47/4/2
f 46/4/2 44/4/2 48/4/2
f 47/4/2 46/4/2 48/4/2
f 49/4/2 50/4/2 51/4/2
f 51/4/2 50/4/2 52/4/2
f 53/4/2 54/4/2 57/4/2
f 55/4/2 56/4/2 58/4/2
f 53/4/2 57/4/2 59/4/2
f 57/4/2 58/4/2 59/4/2
f 58/4/2 56/4/2 60/4/2
f 59/4/2 58/4/2 60/4/2
f 61/3/2 62/3/2 63/3/2
f 63/3/2 62/3/2 64/3/2
f 67/3/3 66/3/3 65/3/3
f 68/3/3 66/3/3 67/3/3
f 71/3/3 70/3/3 69/3/3
f 72/3/3 70/3/3 71/3/3
f 73/3/3 70/3/3 72/3/3
f 74/3/3 70/3/3 73/3/3
f 77/2/3 76/2/3 75/2/3
f 78/2/3 76/2/3 77/2/3
f 81/4/3 80/4/3 79/4/3
f 82/4/3 80/4/3 81/4/3
f 84/4/3 80/4/3 82/4/3
f 85/4/3 84/4/3 83/4/3
f 86/4/3 80/4/3 84/4/3
f 86/4/3 84/4/3 85/4/3
f 89/4/3 88/4/3 87/4/3
f 90/4/3 88/4/3 89/4/3
f 93/4/3 92/4/3 91/4/3
f 94/4/3 92/4/3 93/4/3
f 95/2/4 96/2/4 97/2/4
f 97/2/4 96/2/4 98/2/4
f 99/3/4 100/3/4 101/3/4
f 101/3/4 100/3/4 102/3/4
f 102/3/4 100/3/4 103/3/4
f 103/3/4 100/3/4 104/3/4
f 105/4/4 106/4/4 107/4/4
f 105/4/4 107/4/4 109/4/4
f 107/4/4 108/4/4 109/4/4
f 109/4/4 108/4/4 110/4/4
f 110/4/4 108/4/4 112/4/4
f 112/4/4 108/4/4 113/4/4
f 111/4/4 112/4/4 113/4/4
f 113/4/4 108/4/4 114/4/4
f 111/4/4 113/4/4 115/4/4
f 115/4/4 113/4/4 116/4/4
f 117/4/4 118/4/4 119/4/4
f 119/4/4 118/4/4 120/4/4
f 121/4/4 122/4/4 123/4/4
f 123/4/4 122/4/4 124/4/4
f 125/3/4 126/3/4 127/3/4
f 127/3/4 126/3/4 128/3/4
f 131/3/5 130/3/5 129/3/5
f 132/3/5 130/3/5 131/3/5
f 137/4/5 134/4/5 133/4/5
f 138/4/5 134/4/5 137/4/5
f 141/4/5 136/4/5 135/4/5
f 142/4/5 136/4/5 141/4/5
f 143/4/5 140/4/5 139/4/5
f 144/4/5 140/4/5 143/4/5
f 147/2/5 146/2/5 145/2/5
f 148/2/5 146/2/5 147/2/5
f 151/3/5 150/3/5 149/3/5
f 152/3/5 150/3/5 151/3/5
f 153/3/5 151/3/5 149/3/5
f 154/3/5 150/3/5 152/3/5
f 155/3/5 153/3/5 149/3/5
f 155/3/5 154/3/5 153/3/5
f 156/3/5 150/3/5 154/3/5
f 156/3/5 154/3/5 155/3/5
f 157/3/6 158/3/6 159/3/6
f 159/3/6 158/3/6 160/3/6
f 159/1/6 160/1/6 161/1/6
f 161/1/6 160/1/6 162/1/6
f 157/3/6 159/3/6 163/3/6
f 159/1/6 161/1/6 164/1/6
f 163/3/6 159/3/6 164/3/6
f 164/1/6 161/1/6 166/1/6
f 161/2/6 162/2/6 167/2/6
f 166/1/6 161/1/6 167/1/6
f 162/1/6 160/1/6 168/1/6
f 167/2/6 162/2/6 168/2/6
f 167/1/6 168/1/6 169/1/6
f 168/1/6 160/1/6 169/1/6
f 169/1/6 160/1/6 170/1/6
f 160/3/6 158/3/6 171/3/6
f 170/1/6 160/1/6 171/1/6
f 171/3/6 158/3/6 172/3/6
f 167/1/6 169/1/6 173/1/6
f 170/1/6 171/1/6 174/1/6
f 174/1/6 171/1/6 175/1/6
f 172/3/6 158/3/6 176/3/6
f 166/1/6 167/1/6 177/1/6
f 174/1/6 175/1/6 177/1/6
f 165/3/6 166/3/6 177/3/6
f 167/1/6 173/1/6 177/1/6
f 173/1/6 174/1/6 177/1/6
f 175/3/6 176/3/6 178/3/6
f 177/1/6 175/1/6 178/1/6
f 177/3/6 178/3/6 179/3/6
f 179/3/6 178/3/6 180/3/6
f 178/3/6 176/3/6 181/3/6
f 180/3/6 178/3/6 181/3/6
f 176/3/6 158/3/6 182/3/6
f 181/3/6 176/3/6 182/3/6
f 177/3/6 179/3/6 183/3/6
f 180/3/6 181/3/6 184/3/6
f 184/3/6 181/3/6 185/3/6
f 182/3/6 158/3/6 186/3/6
f 165/3/6 177/3/6 187/3/6
f 185/3/6 186/3/6 187/3/6
f 177/3/6 183/3/6 187/3/6
f 184/3/6 185/3/6 187/3/6
f 183/3/6 184/3/6 187/3/6
f 186/3/6 158/3/6 188/3/6
f 187/3/6 186/3/6 188/3/6
f 189/4/6 190/4/6 191/4/6
f 191/4/6 190/4/6 192/4/6
f 189/4/6 191/4/6 193/4/6
f 193/4/6 191/4/6 194/4/6
f 192/4/6 190/4/6 195/4/6
f 195/4/6 190/4/6 196/4/6
f 197/3/6 198/3/6 199/3/6
f 199/3/6 198/3/6 200/3/6
